 <svg width="484" height="243" viewBox="0 0 484 243" fill="none" xmlns="http://www.w3.org/2000/svg">
<path d="M74.2988 202.493H89.0101C92.0264 202.493 94.6182 202.945 96.7856 203.848C98.9711 204.751 100.651 206.088 101.825 207.858C102.999 209.628 103.586 211.804 103.586 214.387C103.586 216.5 103.225 218.315 102.502 219.832C101.798 221.332 100.795 222.587 99.4949 223.598C98.2125 224.592 96.7044 225.386 94.9704 225.982L92.3966 227.337H79.609L79.5548 220.997H89.0643C90.4911 220.997 91.6742 220.745 92.6134 220.239C93.5526 219.733 94.257 219.029 94.7266 218.126C95.2143 217.223 95.4581 216.175 95.4581 214.983C95.4581 213.719 95.2233 212.626 94.7537 211.705C94.2841 210.784 93.5707 210.079 92.6134 209.592C91.6561 209.104 90.455 208.86 89.0101 208.86H82.4266V241.94H74.2988V202.493ZM96.3522 241.94L87.3574 224.357L95.9458 224.303L105.049 241.561V241.94H96.3522Z" fill="white"/>
<path d="M133.651 209.239L122.922 241.94H114.28L128.937 202.493H134.437L133.651 209.239ZM142.564 241.94L131.809 209.239L130.942 202.493H136.496L151.234 241.94H142.564ZM142.077 227.256V233.623H121.243V227.256H142.077Z" fill="white"/>
<path d="M178.617 229.83V202.493H186.718V229.83C186.718 232.467 186.14 234.733 184.984 236.63C183.828 238.508 182.247 239.953 180.243 240.965C178.256 241.976 176.016 242.482 173.524 242.482C170.941 242.482 168.656 242.048 166.669 241.181C164.682 240.314 163.12 238.987 161.982 237.199C160.844 235.393 160.275 233.108 160.275 230.344H168.43C168.43 231.789 168.629 232.936 169.026 233.785C169.442 234.634 170.029 235.239 170.787 235.6C171.546 235.962 172.458 236.142 173.524 236.142C174.553 236.142 175.447 235.898 176.206 235.411C176.964 234.923 177.551 234.21 177.967 233.27C178.4 232.331 178.617 231.184 178.617 229.83Z" fill="white"/>
<path d="M223.204 202.493H231.304V228.556C231.304 231.591 230.654 234.146 229.354 236.223C228.071 238.301 226.292 239.863 224.017 240.91C221.759 241.958 219.158 242.482 216.214 242.482C213.27 242.482 210.651 241.958 208.357 240.91C206.081 239.863 204.293 238.301 202.993 236.223C201.71 234.146 201.069 231.591 201.069 228.556V202.493H209.197V228.556C209.197 230.326 209.477 231.771 210.037 232.891C210.597 234.011 211.4 234.833 212.448 235.357C213.514 235.88 214.769 236.142 216.214 236.142C217.695 236.142 218.95 235.88 219.98 235.357C221.027 234.833 221.822 234.011 222.364 232.891C222.924 231.771 223.204 230.326 223.204 228.556V202.493Z" fill="white"/>
<path d="M261.207 224.628H251.074L251.02 219.047H259.527C261.026 219.047 262.255 218.857 263.212 218.478C264.169 218.081 264.883 217.512 265.352 216.771C265.84 216.012 266.084 215.091 266.084 214.008C266.084 212.779 265.849 211.786 265.379 211.027C264.928 210.269 264.214 209.718 263.239 209.375C262.282 209.032 261.044 208.86 259.527 208.86H253.892V241.94H245.764V202.493H259.527C261.821 202.493 263.871 202.71 265.677 203.143C267.502 203.577 269.046 204.236 270.31 205.121C271.574 206.006 272.541 207.126 273.209 208.481C273.877 209.817 274.211 211.407 274.211 213.249C274.211 214.875 273.841 216.374 273.101 217.746C272.378 219.119 271.231 220.239 269.66 221.106C268.107 221.973 266.075 222.451 263.564 222.542L261.207 224.628ZM260.855 241.94H248.853L252.023 235.6H260.855C262.282 235.6 263.447 235.375 264.35 234.923C265.253 234.453 265.921 233.821 266.355 233.027C266.788 232.232 267.005 231.32 267.005 230.29C267.005 229.134 266.806 228.132 266.409 227.283C266.029 226.434 265.415 225.784 264.566 225.332C263.718 224.863 262.598 224.628 261.207 224.628H253.377L253.431 219.047H263.185L265.054 221.241C267.456 221.205 269.389 221.63 270.852 222.515C272.333 223.382 273.408 224.51 274.076 225.901C274.762 227.292 275.105 228.782 275.105 230.371C275.105 232.9 274.555 235.031 273.453 236.765C272.351 238.481 270.735 239.773 268.603 240.64C266.49 241.507 263.907 241.94 260.855 241.94Z" fill="white"/>
<path d="M321.372 221.295V223.165C321.372 226.163 320.966 228.854 320.153 231.238C319.34 233.623 318.193 235.655 316.712 237.334C315.231 238.996 313.461 240.269 311.402 241.154C309.361 242.039 307.094 242.482 304.602 242.482C302.127 242.482 299.86 242.039 297.801 241.154C295.76 240.269 293.99 238.996 292.491 237.334C290.992 235.655 289.827 233.623 288.996 231.238C288.184 228.854 287.777 226.163 287.777 223.165V221.295C287.777 218.279 288.184 215.588 288.996 213.222C289.809 210.838 290.956 208.806 292.437 207.126C293.936 205.446 295.706 204.164 297.747 203.279C299.806 202.394 302.073 201.951 304.547 201.951C307.04 201.951 309.307 202.394 311.348 203.279C313.407 204.164 315.177 205.446 316.658 207.126C318.157 208.806 319.313 210.838 320.126 213.222C320.957 215.588 321.372 218.279 321.372 221.295ZM313.163 223.165V221.241C313.163 219.146 312.973 217.304 312.594 215.714C312.215 214.125 311.655 212.788 310.914 211.705C310.174 210.621 309.271 209.808 308.205 209.266C307.139 208.706 305.92 208.427 304.547 208.427C303.175 208.427 301.956 208.706 300.89 209.266C299.842 209.808 298.948 210.621 298.208 211.705C297.485 212.788 296.934 214.125 296.555 215.714C296.176 217.304 295.986 219.146 295.986 221.241V223.165C295.986 225.242 296.176 227.084 296.555 228.692C296.934 230.281 297.494 231.627 298.235 232.729C298.975 233.812 299.879 234.634 300.944 235.194C302.01 235.754 303.229 236.034 304.602 236.034C305.974 236.034 307.194 235.754 308.259 235.194C309.325 234.634 310.219 233.812 310.941 232.729C311.664 231.627 312.215 230.281 312.594 228.692C312.973 227.084 313.163 225.242 313.163 223.165Z" fill="white"/>
<path d="M367.395 221.295V223.165C367.395 226.163 366.988 228.854 366.175 231.238C365.363 233.623 364.216 235.655 362.735 237.334C361.254 238.996 359.484 240.269 357.425 241.154C355.384 242.039 353.117 242.482 350.624 242.482C348.15 242.482 345.883 242.039 343.824 241.154C341.783 240.269 340.013 238.996 338.514 237.334C337.015 235.655 335.85 233.623 335.019 231.238C334.206 228.854 333.8 226.163 333.8 223.165V221.295C333.8 218.279 334.206 215.588 335.019 213.222C335.832 210.838 336.979 208.806 338.46 207.126C339.959 205.446 341.729 204.164 343.77 203.279C345.829 202.394 348.096 201.951 350.57 201.951C353.063 201.951 355.329 202.394 357.37 203.279C359.429 204.164 361.199 205.446 362.68 207.126C364.18 208.806 365.336 210.838 366.148 213.222C366.979 215.588 367.395 218.279 367.395 221.295ZM359.186 223.165V221.241C359.186 219.146 358.996 217.304 358.617 215.714C358.237 214.125 357.677 212.788 356.937 211.705C356.196 210.621 355.293 209.808 354.228 209.266C353.162 208.706 351.943 208.427 350.57 208.427C349.197 208.427 347.978 208.706 346.913 209.266C345.865 209.808 344.971 210.621 344.23 211.705C343.508 212.788 342.957 214.125 342.578 215.714C342.199 217.304 342.009 219.146 342.009 221.241V223.165C342.009 225.242 342.199 227.084 342.578 228.692C342.957 230.281 343.517 231.627 344.258 232.729C344.998 233.812 345.901 234.634 346.967 235.194C348.032 235.754 349.252 236.034 350.624 236.034C351.997 236.034 353.216 235.754 354.282 235.194C355.347 234.634 356.241 233.812 356.964 232.729C357.686 231.627 358.237 230.281 358.617 228.692C358.996 227.084 359.186 225.242 359.186 223.165Z" fill="white"/>
<path d="M389.142 202.493V241.94H381.015V202.493H389.142ZM412.767 202.493L397.135 221.973L388.113 231.672L386.65 223.978L392.746 215.633L402.797 202.493H412.767ZM403.528 241.94L391.906 223.707L397.92 218.668L413.146 241.94H403.528Z" fill="white"/>
<rect x="0.265625" y="218.821" width="60.1093" height="9.24759" fill="#DF0093"/>
<rect x="423.166" y="218.821" width="60.1093" height="9.24759" fill="#DF0093"/>
<path d="M162.121 40.0446L192.956 55.6391V104.973C231.027 95.7975 273.434 101.15 289.879 104.973V55.6391L321.419 40.0446L241.708 0.0292969L162.121 40.0446Z" fill="url(#paint0_linear_165_16)"/>
<path d="M100.393 144.073C201.257 131.584 238.554 184.136 238.554 184.136C238.554 184.136 228.757 136.994 148.701 116.954L172.199 78.5383H184.424V66.9083C164.676 64.6377 155.109 66.4214 148.701 68.7912L100.393 144.073Z" fill="url(#paint1_linear_165_16)"/>
<path d="M383.146 144.073C282.282 131.584 244.985 184.136 244.985 184.136C244.985 184.136 254.782 136.994 334.838 116.954L311.341 78.5383H299.115V66.9083C318.863 64.6377 328.43 66.4214 334.838 68.7912L383.146 144.073Z" fill="url(#paint2_linear_165_16)"/>
<defs>
<linearGradient id="paint0_linear_165_16" x1="240.733" y1="0.0842839" x2="241.795" y2="104.973" gradientUnits="userSpaceOnUse">
<stop stop-color="#DF0093"/>
<stop offset="1" stop-color="#FF69CC"/>
</linearGradient>
<linearGradient id="paint1_linear_165_16" x1="168.574" y1="65.9221" x2="170.129" y2="184.127" gradientUnits="userSpaceOnUse">
<stop stop-color="#DF0093"/>
<stop offset="1" stop-color="#FF69CC"/>
</linearGradient>
<linearGradient id="paint2_linear_165_16" x1="314.965" y1="65.9221" x2="313.41" y2="184.127" gradientUnits="userSpaceOnUse">
<stop stop-color="#DF0093"/>
<stop offset="1" stop-color="#FF69CC"/>
</linearGradient>
</defs>
</svg>
