<svg width="484" height="244" viewBox="0 0 484 244" fill="none" xmlns="http://www.w3.org/2000/svg">
<path d="M74.2617 203.05H88.973C91.9893 203.05 94.5811 203.501 96.7485 204.404C98.934 205.307 100.614 206.644 101.788 208.414C102.962 210.184 103.549 212.36 103.549 214.943C103.549 217.057 103.188 218.872 102.465 220.389C101.761 221.888 100.758 223.143 99.4578 224.155C98.1754 225.148 96.6672 225.943 94.9333 226.539L92.3595 227.894H79.5719L79.5177 221.554H89.0272C90.454 221.554 91.6371 221.301 92.5763 220.795C93.5155 220.29 94.2199 219.585 94.6895 218.682C95.1772 217.779 95.421 216.731 95.421 215.539C95.421 214.275 95.1862 213.182 94.7166 212.261C94.247 211.34 93.5335 210.636 92.5763 210.148C91.619 209.66 90.4179 209.416 88.973 209.416H82.3895V242.496H74.2617V203.05ZM96.315 242.496L87.3203 224.913L95.9087 224.859L105.012 242.117V242.496H96.315Z" fill="white"/>
<path d="M133.614 209.796L122.885 242.496H114.243L128.9 203.05H134.4L133.614 209.796ZM142.527 242.496L131.772 209.796L130.905 203.05H136.459L151.197 242.496H142.527ZM142.04 227.812V234.179H121.206V227.812H142.04Z" fill="white"/>
<path d="M178.58 230.386V203.05H186.681V230.386C186.681 233.023 186.103 235.29 184.947 237.186C183.791 239.065 182.21 240.51 180.205 241.521C178.219 242.533 175.979 243.038 173.487 243.038C170.904 243.038 168.619 242.605 166.632 241.738C164.645 240.871 163.083 239.543 161.945 237.755C160.807 235.949 160.238 233.664 160.238 230.901H168.393C168.393 232.346 168.592 233.493 168.989 234.342C169.405 235.19 169.992 235.796 170.75 236.157C171.509 236.518 172.421 236.699 173.487 236.699C174.516 236.699 175.41 236.455 176.169 235.967C176.927 235.479 177.514 234.766 177.93 233.827C178.363 232.888 178.58 231.741 178.58 230.386Z" fill="white"/>
<path d="M223.167 203.05H231.267V229.113C231.267 232.147 230.617 234.703 229.317 236.78C228.034 238.857 226.255 240.419 223.979 241.467C221.722 242.514 219.121 243.038 216.177 243.038C213.233 243.038 210.614 242.514 208.32 241.467C206.044 240.419 204.256 238.857 202.956 236.78C201.673 234.703 201.032 232.147 201.032 229.113V203.05H209.16V229.113C209.16 230.883 209.44 232.328 210 233.447C210.56 234.567 211.363 235.389 212.411 235.913C213.477 236.437 214.732 236.699 216.177 236.699C217.658 236.699 218.913 236.437 219.943 235.913C220.99 235.389 221.785 234.567 222.327 233.447C222.887 232.328 223.167 230.883 223.167 229.113V203.05Z" fill="white"/>
<path d="M261.17 225.184H251.037L250.983 219.603H259.49C260.989 219.603 262.217 219.414 263.175 219.034C264.132 218.637 264.845 218.068 265.315 217.327C265.803 216.569 266.047 215.648 266.047 214.564C266.047 213.336 265.812 212.342 265.342 211.584C264.891 210.825 264.177 210.274 263.202 209.931C262.245 209.588 261.007 209.416 259.49 209.416H253.855V242.496H245.727V203.05H259.49C261.784 203.05 263.834 203.266 265.64 203.7C267.464 204.133 269.009 204.793 270.273 205.678C271.537 206.563 272.504 207.682 273.172 209.037C273.84 210.374 274.174 211.963 274.174 213.805C274.174 215.431 273.804 216.93 273.064 218.303C272.341 219.675 271.194 220.795 269.623 221.662C268.069 222.529 266.038 223.008 263.527 223.098L261.17 225.184ZM260.818 242.496H248.816L251.986 236.157H260.818C262.245 236.157 263.41 235.931 264.313 235.479C265.216 235.01 265.884 234.378 266.317 233.583C266.751 232.788 266.968 231.876 266.968 230.847C266.968 229.691 266.769 228.688 266.372 227.839C265.992 226.99 265.378 226.34 264.529 225.889C263.68 225.419 262.561 225.184 261.17 225.184H253.34L253.394 219.603H263.148L265.017 221.798C267.419 221.762 269.352 222.186 270.815 223.071C272.296 223.938 273.371 225.067 274.039 226.458C274.725 227.848 275.068 229.338 275.068 230.928C275.068 233.457 274.517 235.588 273.416 237.322C272.314 239.038 270.697 240.329 268.566 241.196C266.453 242.063 263.87 242.496 260.818 242.496Z" fill="white"/>
<path d="M321.335 221.852V223.721C321.335 226.72 320.928 229.411 320.116 231.795C319.303 234.179 318.156 236.211 316.675 237.891C315.194 239.552 313.424 240.826 311.365 241.711C309.324 242.596 307.057 243.038 304.565 243.038C302.09 243.038 299.823 242.596 297.764 241.711C295.723 240.826 293.953 239.552 292.454 237.891C290.955 236.211 289.79 234.179 288.959 231.795C288.146 229.411 287.74 226.72 287.74 223.721V221.852C287.74 218.836 288.146 216.144 288.959 213.778C289.772 211.394 290.919 209.362 292.4 207.682C293.899 206.003 295.669 204.72 297.71 203.835C299.769 202.95 302.036 202.508 304.51 202.508C307.003 202.508 309.27 202.95 311.311 203.835C313.37 204.72 315.14 206.003 316.621 207.682C318.12 209.362 319.276 211.394 320.089 213.778C320.919 216.144 321.335 218.836 321.335 221.852ZM313.126 223.721V221.798C313.126 219.703 312.936 217.86 312.557 216.271C312.178 214.681 311.618 213.345 310.877 212.261C310.137 211.177 309.234 210.365 308.168 209.823C307.102 209.263 305.883 208.983 304.51 208.983C303.138 208.983 301.919 209.263 300.853 209.823C299.805 210.365 298.911 211.177 298.171 212.261C297.448 213.345 296.897 214.681 296.518 216.271C296.139 217.86 295.949 219.703 295.949 221.798V223.721C295.949 225.798 296.139 227.641 296.518 229.248C296.897 230.838 297.457 232.183 298.198 233.285C298.938 234.369 299.841 235.19 300.907 235.75C301.973 236.31 303.192 236.59 304.565 236.59C305.937 236.59 307.156 236.31 308.222 235.75C309.288 235.19 310.182 234.369 310.904 233.285C311.627 232.183 312.178 230.838 312.557 229.248C312.936 227.641 313.126 225.798 313.126 223.721Z" fill="white"/>
<path d="M367.357 221.852V223.721C367.357 226.72 366.951 229.411 366.138 231.795C365.326 234.179 364.179 236.211 362.698 237.891C361.216 239.552 359.446 240.826 357.387 241.711C355.346 242.596 353.08 243.038 350.587 243.038C348.113 243.038 345.846 242.596 343.787 241.711C341.746 240.826 339.976 239.552 338.477 237.891C336.978 236.211 335.813 234.179 334.982 231.795C334.169 229.411 333.763 226.72 333.763 223.721V221.852C333.763 218.836 334.169 216.144 334.982 213.778C335.795 211.394 336.942 209.362 338.423 207.682C339.922 206.003 341.692 204.72 343.733 203.835C345.792 202.95 348.059 202.508 350.533 202.508C353.026 202.508 355.292 202.95 357.333 203.835C359.392 204.72 361.162 206.003 362.643 207.682C364.142 209.362 365.298 211.394 366.111 213.778C366.942 216.144 367.357 218.836 367.357 221.852ZM359.148 223.721V221.798C359.148 219.703 358.959 217.86 358.579 216.271C358.2 214.681 357.64 213.345 356.9 212.261C356.159 211.177 355.256 210.365 354.19 209.823C353.125 209.263 351.906 208.983 350.533 208.983C349.16 208.983 347.941 209.263 346.875 209.823C345.828 210.365 344.934 211.177 344.193 212.261C343.471 213.345 342.92 214.681 342.541 216.271C342.161 217.86 341.972 219.703 341.972 221.798V223.721C341.972 225.798 342.161 227.641 342.541 229.248C342.92 230.838 343.48 232.183 344.22 233.285C344.961 234.369 345.864 235.19 346.93 235.75C347.995 236.31 349.214 236.59 350.587 236.59C351.96 236.59 353.179 236.31 354.245 235.75C355.31 235.19 356.204 234.369 356.927 233.285C357.649 232.183 358.2 230.838 358.579 229.248C358.959 227.641 359.148 225.798 359.148 223.721Z" fill="white"/>
<path d="M389.105 203.05V242.496H380.977V203.05H389.105ZM412.73 203.05L397.098 222.529L388.076 232.228L386.613 224.534L392.709 216.19L402.76 203.05H412.73ZM403.491 242.496L391.869 224.263L397.883 219.224L413.109 242.496H403.491Z" fill="white"/>
<rect x="0.228516" y="219.377" width="60.1093" height="9.24759" fill="#DF0093"/>
<rect x="423.129" y="219.377" width="60.1093" height="9.24759" fill="#DF0093"/>
<path d="M162.084 40.6006L192.919 56.1951V105.529C230.99 96.3535 273.397 101.706 289.842 105.529V56.1951L321.382 40.6006L241.671 0.585327L162.084 40.6006Z" fill="url(#paint0_linear_165_16)"/>
<path d="M100.355 144.629C201.22 132.14 238.517 184.692 238.517 184.692C238.517 184.692 228.72 137.55 148.664 117.511L172.161 79.0945H184.387V67.4644C164.638 65.1938 155.072 66.9776 148.664 69.3474L100.355 144.629Z" fill="url(#paint1_linear_165_16)"/>
<path d="M383.109 144.629C282.245 132.14 244.948 184.692 244.948 184.692C244.948 184.692 254.745 137.55 334.801 117.511L311.303 79.0945H299.078V67.4644C318.826 65.1938 328.393 66.9776 334.801 69.3474L383.109 144.629Z" fill="url(#paint2_linear_165_16)"/>
<defs>
<linearGradient id="paint0_linear_165_16" x1="240.696" y1="0.640314" x2="241.758" y2="105.529" gradientUnits="userSpaceOnUse">
<stop stop-color="#DF0093"/>
<stop offset="1" stop-color="#FF69CC"/>
</linearGradient>
<linearGradient id="paint1_linear_165_16" x1="168.537" y1="66.4782" x2="170.091" y2="184.683" gradientUnits="userSpaceOnUse">
<stop stop-color="#DF0093"/>
<stop offset="1" stop-color="#FF69CC"/>
</linearGradient>
<linearGradient id="paint2_linear_165_16" x1="314.928" y1="66.4782" x2="313.373" y2="184.683" gradientUnits="userSpaceOnUse">
<stop stop-color="#DF0093"/>
<stop offset="1" stop-color="#FF69CC"/>
</linearGradient>
</defs>
</svg>
